<svg preserveAspectRatio="none" width="100%" height="100%" overflow="visible" style="display: block;" viewBox="0 0 125 48" fill="none" xmlns="http://www.w3.org/2000/svg">
<g id="Vector">
<path d="M7.64036 21.306C6.06287 21.306 4.60892 20.9715 3.27851 20.3024C1.96711 19.6142 0.87427 18.5054 0 16.976L3.44957 14.768C3.96272 15.8003 4.60892 16.5554 5.38817 17.0334C6.16741 17.4922 6.99416 17.7216 7.86843 17.7216C8.79972 17.7216 9.53145 17.5113 10.0636 17.0907C10.5958 16.6701 10.8619 16.1157 10.8619 15.4275C10.8619 14.7584 10.6528 14.2231 10.2347 13.8217C9.81653 13.4202 9.25586 13.0952 8.55264 12.8467C7.86843 12.5982 7.1177 12.3688 6.30045 12.1585C4.76097 11.757 3.53509 11.0975 2.62281 10.1799C1.71053 9.24313 1.25439 8.01963 1.25439 6.50938C1.25439 5.305 1.54898 4.25356 2.13816 3.35505C2.72734 2.45655 3.5446 1.75877 4.58992 1.26173C5.65425 0.764685 6.88963 0.516163 8.29606 0.516163C9.85455 0.516163 11.1564 0.841153 12.2018 1.49114C13.2471 2.14112 14.1404 3.05874 14.8816 4.244L11.4605 6.366C10.9854 5.5822 10.4912 5.00869 9.97808 4.64546C9.46493 4.28224 8.83773 4.10062 8.0965 4.10062C7.29826 4.10062 6.63305 4.30135 6.10089 4.70281C5.58773 5.10427 5.33115 5.63955 5.33115 6.30865C5.33115 7.05422 5.63524 7.59906 6.24343 7.94317C6.87062 8.26816 7.62136 8.56447 8.49563 8.83211C9.08481 9.02328 9.74051 9.25269 10.4627 9.52033C11.204 9.76885 11.9167 10.1225 12.6009 10.5813C13.2851 11.021 13.8458 11.6137 14.2829 12.3592C14.7201 13.1048 14.9386 14.0511 14.9386 15.1981C14.9386 16.4025 14.644 17.4635 14.0548 18.3811C13.4657 19.2987 12.6294 20.0156 11.5461 20.5318C10.4627 21.048 9.16083 21.306 7.64036 21.306Z" fill="white"/>
<path d="M23.8841 21.306C22.3637 21.306 21.0048 20.9524 19.8074 20.245C18.61 19.5377 17.6692 18.601 16.985 17.4348C16.3198 16.2496 15.9872 14.94 15.9872 13.5062C15.9872 12.0725 16.3198 10.7629 16.985 9.57768C17.6692 8.39242 18.61 7.44612 19.8074 6.73879C21.0048 6.03145 22.3637 5.67779 23.8841 5.67779C25.4236 5.67779 26.7825 6.03145 27.9609 6.73879C29.1583 7.44612 30.0896 8.39242 30.7548 9.57768C31.439 10.7629 31.7811 12.0725 31.7811 13.5062C31.7811 14.94 31.439 16.2496 30.7548 17.4348C30.0896 18.601 29.1583 19.5377 27.9609 20.245C26.7825 20.9524 25.4236 21.306 23.8841 21.306ZM23.8841 17.7789C24.7014 17.7789 25.4141 17.5878 26.0223 17.2054C26.6305 16.804 27.0961 16.2782 27.4192 15.6282C27.7613 14.9783 27.9324 14.2709 27.9324 13.5062C27.9324 12.7224 27.7613 12.0056 27.4192 11.3556C27.0961 10.7056 26.6305 10.1894 26.0223 9.80708C25.4141 9.40563 24.7014 9.2049 23.8841 9.2049C23.0669 9.2049 22.3542 9.40563 21.746 9.80708C21.1378 10.1894 20.6627 10.7056 20.3205 11.3556C19.9974 12.0056 19.8359 12.7224 19.8359 13.5062C19.8359 14.2709 19.9974 14.9783 20.3205 15.6282C20.6627 16.2782 21.1378 16.804 21.746 17.2054C22.3542 17.5878 23.0669 17.7789 23.8841 17.7789Z" fill="white"/>
<path d="M34.2337 20.9333V9.3196H32.1526V6.02189H34.2337V5.01825C34.2337 3.50799 34.6804 2.29405 35.5736 1.37643C36.4669 0.458811 37.6643 0 39.1658 0H40.7623V3.2977H39.7644C38.6431 3.2977 38.0824 3.89033 38.0824 5.0756V6.02189H41.1044V9.3196H38.0824V20.9333H34.2337Z" fill="white"/>
<path d="M48.2881 20.9333C46.8247 20.9333 45.7033 20.57 44.9241 19.8436C44.1449 19.1171 43.7552 17.9414 43.7552 16.3165V9.3196H41.6741V6.02189H43.7552V3.01095L47.6039 2.60949V6.02189H50.7399V9.3196H47.6039V16.1157C47.6039 17.0334 48.003 17.4922 48.8013 17.4922H50.3978V20.9333H48.2881Z" fill="white"/>
<path d="M52.8683 20.9333V0.86027H64.5854V4.47341H56.8595V9.17622H64.4428V12.732H56.8595V20.9333H52.8683Z" fill="white"/>
<path d="M74.053 21.306C72.5325 21.306 71.1736 20.9524 69.9762 20.245C68.7788 19.5377 67.838 18.601 67.1538 17.4348C66.4886 16.2496 66.156 14.94 66.156 13.5062C66.156 12.0725 66.4886 10.7629 67.1538 9.57768C67.838 8.39242 68.7788 7.44612 69.9762 6.73879C71.1736 6.03145 72.5325 5.67779 74.053 5.67779C75.5924 5.67779 76.9514 6.03145 78.1297 6.73879C79.3271 7.44612 80.2584 8.39242 80.9236 9.57768C81.6078 10.7629 81.9499 12.0725 81.9499 13.5062C81.9499 14.94 81.6078 16.2496 80.9236 17.4348C80.2584 18.601 79.3271 19.5377 78.1297 20.245C76.9514 20.9524 75.5924 21.306 74.053 21.306ZM74.053 17.7789C74.8702 17.7789 75.5829 17.5878 76.1911 17.2054C76.7993 16.804 77.265 16.2782 77.5881 15.6282C77.9302 14.9783 78.1012 14.2709 78.1012 13.5062C78.1012 12.7224 77.9302 12.0056 77.5881 11.3556C77.265 10.7056 76.7993 10.1894 76.1911 9.80708C75.5829 9.40563 74.8702 9.2049 74.053 9.2049C73.2357 9.2049 72.523 9.40563 71.9148 9.80708C71.3066 10.1894 70.8315 10.7056 70.4894 11.3556C70.1663 12.0056 70.0047 12.7224 70.0047 13.5062C70.0047 14.2709 70.1663 14.9783 70.4894 15.6282C70.8315 16.2782 71.3066 16.804 71.9148 17.2054C72.523 17.5878 73.2357 17.7789 74.053 17.7789Z" fill="white"/>
<path d="M90.5843 21.306C89.52 21.306 88.5222 21.1053 87.5909 20.7038C86.6786 20.3024 85.8708 19.748 85.1676 19.0407C84.4644 18.3142 83.9132 17.4826 83.5141 16.5459C83.134 15.59 82.9439 14.5672 82.9439 13.4776C82.9439 12.0247 83.2765 10.7151 83.9417 9.549C84.626 8.36374 85.5572 7.41744 86.7356 6.71011C87.933 6.00278 89.2824 5.64911 90.7839 5.64911C92.1333 5.62999 93.3401 5.86896 94.4045 6.366C95.4688 6.86305 96.3146 7.55126 96.9418 8.43065L93.9768 10.8681C93.6347 10.3519 93.1881 9.9409 92.6369 9.63503C92.1048 9.32916 91.5061 9.17622 90.8409 9.17622C90.0236 9.17622 89.3109 9.37695 88.7027 9.77841C88.0945 10.1608 87.6194 10.6769 87.2773 11.3269C86.9542 11.9769 86.7926 12.6938 86.7926 13.4776C86.7926 14.2423 86.9637 14.9591 87.3058 15.6282C87.6669 16.2782 88.1515 16.804 88.7597 17.2054C89.3869 17.5878 90.1091 17.7789 90.9264 17.7789C91.6676 17.7789 92.2948 17.6164 92.808 17.2914C93.3211 16.9473 93.7678 16.5172 94.1479 16.001L96.9418 18.4385C96.2385 19.337 95.3643 20.0443 94.319 20.5605C93.2926 21.0575 92.0477 21.306 90.5843 21.306Z" fill="white"/>
<path d="M103.8 21.2774C102.735 21.2774 101.776 21.0288 100.92 20.5318C100.065 20.0347 99.3903 19.3274 98.8962 18.4098C98.402 17.4731 98.1549 16.3834 98.1549 15.1408V6.02189H102.004V14.1945C102.004 15.4753 102.26 16.4121 102.773 17.0047C103.287 17.5973 104.018 17.8936 104.969 17.8936C105.786 17.8936 106.499 17.5973 107.107 17.0047C107.734 16.4121 108.048 15.4753 108.048 14.1945V6.02189H111.896V20.9333H108.162V18.6965C107.8 19.5568 107.268 20.2068 106.565 20.6465C105.881 21.0671 104.959 21.2774 103.8 21.2774Z" fill="white"/>
<path d="M119.241 21.306C116.751 21.306 114.699 20.4362 113.083 18.6965L115.678 16.3165C116.761 17.54 117.92 18.1517 119.156 18.1517C119.821 18.1517 120.325 18.0083 120.667 17.7216C121.028 17.4157 121.208 17.0429 121.208 16.6032C121.208 16.3356 121.142 16.1062 121.009 15.915C120.895 15.7238 120.638 15.5422 120.239 15.3702C119.859 15.1981 119.279 15.0261 118.5 14.854C117.17 14.529 116.181 14.1276 115.535 13.6496C114.889 13.1717 114.461 12.6364 114.252 12.0438C114.043 11.4512 113.939 10.8394 113.939 10.2085C113.939 8.90858 114.423 7.82846 115.393 6.96819C116.381 6.0888 117.74 5.64911 119.469 5.64911C120.667 5.64911 121.693 5.83072 122.548 6.19395C123.404 6.55717 124.211 7.23583 124.971 8.22992L122.178 10.3806C121.817 9.80708 121.408 9.39607 120.952 9.14754C120.515 8.89902 120.049 8.77476 119.555 8.77476C119.023 8.77476 118.576 8.8799 118.215 9.09019C117.873 9.30048 117.702 9.63503 117.702 10.0938C117.702 10.3424 117.816 10.5909 118.044 10.8394C118.272 11.0688 118.823 11.2982 119.697 11.5276C121.142 11.8909 122.244 12.321 123.004 12.818C123.765 13.296 124.287 13.8408 124.572 14.4525C124.857 15.0643 125 15.743 125 16.4885C125 17.4061 124.743 18.2282 124.23 18.9546C123.736 19.6811 123.052 20.2546 122.178 20.6752C121.322 21.0957 120.344 21.306 119.241 21.306Z" fill="white"/>
<path d="M0.970272 47.8167V37.3892H2.22563V46.6966H7.04459V47.8167H0.970272Z" fill="var(--fill-0, #D1D1D1)"/>
<path d="M11.3507 47.8167H10.0346L13.8412 37.3892H15.1371L18.9436 47.8167H17.6275L14.5296 39.0388H14.4486L11.3507 47.8167ZM11.8367 43.7435H17.1416V44.8636H11.8367V43.7435Z" fill="var(--fill-0, #D1D1D1)"/>
<path d="M21.8413 47.8167V37.3892H25.4656C26.1878 37.3892 26.7834 37.5148 27.2525 37.766C27.7216 38.0137 28.0708 38.3481 28.3003 38.769C28.5298 39.1865 28.6445 39.6498 28.6445 40.159C28.6445 40.6071 28.5652 40.977 28.4066 41.269C28.2514 41.5609 28.0455 41.7917 27.7891 41.9614C27.536 42.1311 27.2609 42.2567 26.964 42.3382V42.44C27.2812 42.4604 27.6001 42.5724 27.9207 42.7761C28.2413 42.9797 28.5095 43.2716 28.7255 43.6518C28.9415 44.032 29.0495 44.497 29.0495 45.0469C29.0495 45.5696 28.9314 46.0398 28.6951 46.4573C28.4589 46.8748 28.086 47.2057 27.5765 47.4501C27.0669 47.6945 26.4038 47.8167 25.5871 47.8167H21.8413ZM23.0966 46.6966H25.5871C26.4071 46.6966 26.9893 46.537 27.3335 46.218C27.6811 45.8955 27.8549 45.5051 27.8549 45.0469C27.8549 44.6939 27.7654 44.368 27.5866 44.0693C27.4077 43.7672 27.1529 43.5262 26.8222 43.3463C26.4915 43.163 26.1001 43.0714 25.6479 43.0714H23.0966V46.6966ZM23.0966 41.9716H25.4251C25.8031 41.9716 26.1439 41.8969 26.4476 41.7476C26.7547 41.5982 26.9977 41.3878 27.1766 41.1162C27.3588 40.8447 27.4499 40.5256 27.4499 40.159C27.4499 39.7008 27.2913 39.3121 26.9741 38.993C26.6569 38.6706 26.154 38.5093 25.4656 38.5093H23.0966V41.9716Z" fill="var(--fill-0, #D1D1D1)"/>
<path d="M38.0645 39.9961C38.0037 39.4801 37.7574 39.0796 37.3254 38.7945C36.8935 38.5093 36.3637 38.3668 35.736 38.3668C35.277 38.3668 34.8755 38.4414 34.5312 38.5908C34.1904 38.7401 33.9238 38.9455 33.7315 39.2069C33.5425 39.4682 33.448 39.7652 33.448 40.0979C33.448 40.3762 33.5138 40.6155 33.6454 40.8158C33.7804 41.0127 33.9525 41.1773 34.1617 41.3097C34.3709 41.4387 34.5903 41.5456 34.8198 41.6305C35.0492 41.7119 35.2602 41.7781 35.4525 41.829L36.5054 42.1142C36.7754 42.1854 37.0757 42.2839 37.4064 42.4095C37.7405 42.5351 38.0594 42.7065 38.3631 42.9237C38.6702 43.1376 38.9233 43.4125 39.1224 43.7485C39.3215 44.0846 39.4211 44.497 39.4211 44.9858C39.4211 45.5493 39.2743 46.0584 38.9807 46.5133C38.6905 46.9681 38.2653 47.3296 37.7051 47.5978C37.1483 47.8659 36.4717 48 35.6752 48C34.9328 48 34.29 47.8795 33.7466 47.6385C33.2067 47.3975 32.7815 47.0615 32.471 46.6304C32.1639 46.1993 31.9902 45.6986 31.9497 45.1284H33.2455C33.2793 45.5221 33.4109 45.848 33.6403 46.1059C33.8732 46.3605 34.1668 46.5506 34.5211 46.6762C34.8788 46.7984 35.2635 46.8595 35.6752 46.8595C36.1544 46.8595 36.5847 46.7814 36.966 46.6253C37.3474 46.4657 37.6494 46.2451 37.8721 45.9634C38.0948 45.6783 38.2062 45.3456 38.2062 44.9654C38.2062 44.6192 38.11 44.3375 37.9177 44.1202C37.7253 43.903 37.4722 43.7265 37.1584 43.5907C36.8445 43.4549 36.5054 43.3361 36.1409 43.2343L34.8653 42.8677C34.0554 42.6335 33.4142 42.2992 32.9418 41.8647C32.4694 41.4302 32.2331 40.8616 32.2331 40.159C32.2331 39.5752 32.39 39.066 32.7039 38.6315C33.0211 38.1937 33.4463 37.8542 33.9795 37.6132C34.5161 37.3688 35.1151 37.2466 35.7765 37.2466C36.4447 37.2466 37.0386 37.3671 37.5583 37.6081C38.078 37.8457 38.4897 38.1716 38.7934 38.5857C39.1005 38.9998 39.2625 39.4699 39.2793 39.9961H38.0645Z" fill="var(--fill-0, #D1D1D1)"/>
</g>
</svg>
