<svg preserveAspectRatio="none" width="100%" height="100%" overflow="visible" style="display: block;" viewBox="0 0 335 128" fill="none" xmlns="http://www.w3.org/2000/svg">
<g id="Vector">
<path d="M20.4762 56.8161C16.2485 56.8161 12.3519 55.924 8.78642 54.1397C5.27185 52.3045 2.34304 49.3477 0 45.2693L9.24484 39.3813C10.6201 42.1341 12.3519 44.1478 14.4403 45.4223C16.5286 46.6458 18.7444 47.2575 21.0874 47.2575C23.5832 47.2575 25.5443 46.6968 26.9705 45.5752C28.3967 44.4537 29.1098 42.9753 29.1098 41.1401C29.1098 39.3558 28.5495 37.9284 27.4289 36.8578C26.3083 35.7873 24.8057 34.9206 22.9211 34.2579C21.0874 33.5952 19.0754 32.9834 16.8852 32.4226C12.7594 31.3521 9.47405 29.5933 7.02913 27.1463C4.58422 24.6483 3.36176 21.3857 3.36176 17.3583C3.36176 14.1467 4.15126 11.3428 5.73027 8.94681C7.30928 6.5508 9.49952 4.69007 12.301 3.36461C15.1534 2.03916 18.4642 1.37643 22.2335 1.37643C26.4102 1.37643 29.8993 2.24308 32.7007 3.97636C35.5022 5.70965 37.8962 8.15664 39.8827 11.3173L30.7143 16.976C29.4409 14.8859 28.1165 13.3565 26.7413 12.3879C25.366 11.4193 23.6851 10.935 21.6986 10.935C19.5593 10.935 17.7766 11.4703 16.3504 12.5408C14.9751 13.6114 14.2875 15.0388 14.2875 16.8231C14.2875 18.8112 15.1024 20.2642 16.7324 21.1818C18.4133 22.0484 20.4252 22.8386 22.7683 23.5523C24.3473 24.0621 26.1046 24.6738 28.0401 25.3875C30.0266 26.0503 31.9367 26.9934 33.7704 28.2169C35.6041 29.3894 37.1067 30.9697 38.2782 32.9579C39.4497 34.9461 40.0355 37.4696 40.0355 40.5283C40.0355 43.74 39.246 46.5693 37.667 49.0163C36.088 51.4633 33.8468 53.375 30.9435 54.7514C28.0401 56.1279 24.551 56.8161 20.4762 56.8161Z" fill="white"/>
<path d="M64.0095 56.8161C59.9347 56.8161 56.2927 55.873 53.0838 53.9868C49.8748 52.1005 47.3535 49.6026 45.5198 46.4928C43.7371 43.3321 42.8457 39.8401 42.8457 36.0167C42.8457 32.1932 43.7371 28.7012 45.5198 25.5405C47.3535 22.3798 49.8748 19.8563 53.0838 17.9701C56.2927 16.0839 59.9347 15.1408 64.0095 15.1408C68.1353 15.1408 71.7772 16.0839 74.9352 17.9701C78.1442 19.8563 80.64 22.3798 82.4228 25.5405C84.2565 28.7012 85.1733 32.1932 85.1733 36.0167C85.1733 39.8401 84.2565 43.3321 82.4228 46.4928C80.64 49.6026 78.1442 52.1005 74.9352 53.9868C71.7772 55.873 68.1353 56.8161 64.0095 56.8161ZM64.0095 47.4105C66.1997 47.4105 68.1098 46.9007 69.7398 45.8811C71.3697 44.8105 72.6177 43.4086 73.4836 41.6753C74.4004 39.942 74.8588 38.0558 74.8588 36.0167C74.8588 33.9265 74.4004 32.0148 73.4836 30.2815C72.6177 28.5482 71.3697 27.1718 69.7398 26.1522C68.1098 25.0817 66.1997 24.5464 64.0095 24.5464C61.8193 24.5464 59.9092 25.0817 58.2792 26.1522C56.6493 27.1718 55.3759 28.5482 54.4591 30.2815C53.5932 32.0148 53.1602 33.9265 53.1602 36.0167C53.1602 38.0558 53.5932 39.942 54.4591 41.6753C55.3759 43.4086 56.6493 44.8105 58.2792 45.8811C59.9092 46.9007 61.8193 47.4105 64.0095 47.4105Z" fill="white"/>
<path d="M91.7464 55.822V24.8523H86.1689V16.0584H91.7464V13.382C91.7464 9.35465 92.9434 6.11748 95.3374 3.67049C97.7314 1.2235 100.94 0 104.964 0H109.243V8.79388H106.569C103.564 8.79388 102.061 10.3742 102.061 13.5349V16.0584H110.16V24.8523H102.061V55.822H91.7464Z" fill="white"/>
<path d="M129.412 55.822C125.49 55.822 122.485 54.8534 120.397 52.9162C118.308 50.979 117.264 47.8438 117.264 43.5106V24.8523H111.687V16.0584H117.264V8.02919L127.579 6.95863V16.0584H135.983V24.8523H127.579V42.9753C127.579 45.4223 128.648 46.6458 130.787 46.6458H135.066V55.822H129.412Z" fill="white"/>
<path d="M141.687 55.822V2.29405H173.089V11.9291H152.383V24.4699H172.707V33.952H152.383V55.822H141.687Z" fill="white"/>
<path d="M198.462 56.8161C194.387 56.8161 190.745 55.873 187.536 53.9868C184.327 52.1005 181.806 49.6026 179.972 46.4928C178.19 43.3321 177.298 39.8401 177.298 36.0167C177.298 32.1932 178.19 28.7012 179.972 25.5405C181.806 22.3798 184.327 19.8563 187.536 17.9701C190.745 16.0839 194.387 15.1408 198.462 15.1408C202.588 15.1408 206.23 16.0839 209.388 17.9701C212.597 19.8563 215.092 22.3798 216.875 25.5405C218.709 28.7012 219.626 32.1932 219.626 36.0167C219.626 39.8401 218.709 43.3321 216.875 46.4928C215.092 49.6026 212.597 52.1005 209.388 53.9868C206.23 55.873 202.588 56.8161 198.462 56.8161ZM198.462 47.4105C200.652 47.4105 202.562 46.9007 204.192 45.8811C205.822 44.8105 207.07 43.4086 207.936 41.6753C208.853 39.942 209.311 38.0558 209.311 36.0167C209.311 33.9265 208.853 32.0148 207.936 30.2815C207.07 28.5482 205.822 27.1718 204.192 26.1522C202.562 25.0817 200.652 24.5464 198.462 24.5464C196.272 24.5464 194.362 25.0817 192.732 26.1522C191.102 27.1718 189.828 28.5482 188.912 30.2815C188.046 32.0148 187.613 33.9265 187.613 36.0167C187.613 38.0558 188.046 39.942 188.912 41.6753C189.828 43.4086 191.102 44.8105 192.732 45.8811C194.362 46.9007 196.272 47.4105 198.462 47.4105Z" fill="white"/>
<path d="M242.766 56.8161C239.913 56.8161 237.239 56.2808 234.744 55.2103C232.299 54.1397 230.134 52.6613 228.249 50.7751C226.365 48.8379 224.887 46.6203 223.818 44.1223C222.799 41.5734 222.29 38.846 222.29 35.9402C222.29 32.0658 223.181 28.5737 224.964 25.464C226.798 22.3033 229.293 19.7799 232.451 17.8936C235.66 16.0074 239.277 15.0643 243.301 15.0643C246.917 15.0133 250.152 15.6506 253.004 16.976C255.856 18.3015 258.123 20.1367 259.804 22.4817L251.858 28.9816C250.941 27.6051 249.744 26.5091 248.267 25.6934C246.841 24.8778 245.236 24.4699 243.454 24.4699C241.263 24.4699 239.353 25.0052 237.723 26.0758C236.093 27.0953 234.82 28.4718 233.903 30.2051C233.037 31.9383 232.604 33.8501 232.604 35.9402C232.604 37.9794 233.063 39.8911 233.98 41.6753C234.947 43.4086 236.246 44.8105 237.876 45.8811C239.557 46.9007 241.493 47.4105 243.683 47.4105C245.669 47.4105 247.35 46.9771 248.725 46.1105C250.101 45.1929 251.298 44.0459 252.316 42.6694L259.804 49.1692C257.919 51.5653 255.576 53.4515 252.775 54.8279C250.024 56.1534 246.688 56.8161 242.766 56.8161Z" fill="white"/>
<path d="M278.183 56.7396C275.331 56.7396 272.759 56.0769 270.466 54.7514C268.174 53.426 266.366 51.5398 265.042 49.0928C263.717 46.5948 263.055 43.689 263.055 40.3754V16.0584H273.37V37.8519C273.37 41.2675 274.057 43.7655 275.433 45.3458C276.808 46.9262 278.769 47.7163 281.316 47.7163C283.506 47.7163 285.416 46.9262 287.046 45.3458C288.727 43.7655 289.567 41.2675 289.567 37.8519V16.0584H299.882V55.822H289.873V49.8575C288.905 52.1515 287.479 53.8848 285.594 55.0573C283.761 56.1789 281.29 56.7396 278.183 56.7396Z" fill="white"/>
<path d="M319.566 56.8161C312.894 56.8161 307.393 54.4965 303.063 49.8575L310.016 43.5106C312.919 46.7732 316.026 48.4046 319.337 48.4046C321.12 48.4046 322.47 48.0222 323.387 47.2575C324.354 46.4419 324.838 45.4478 324.838 44.2753C324.838 43.5616 324.66 42.9498 324.303 42.44C323.998 41.9302 323.31 41.4459 322.241 40.9871C321.222 40.5283 319.668 40.0695 317.58 39.6107C314.014 38.744 311.366 37.6735 309.634 36.399C307.902 35.1245 306.756 33.6971 306.196 32.1168C305.636 30.5364 305.355 28.9051 305.355 27.2228C305.355 23.7562 306.654 20.8759 309.252 18.5818C311.901 16.2368 315.543 15.0643 320.178 15.0643C323.387 15.0643 326.137 15.5486 328.429 16.5172C330.721 17.4858 332.886 19.2956 334.924 21.9465L327.436 27.6816C326.468 26.1522 325.373 25.0562 324.151 24.3934C322.979 23.7307 321.731 23.3994 320.407 23.3994C318.981 23.3994 317.784 23.6797 316.816 24.2405C315.899 24.8013 315.441 25.6934 315.441 26.9169C315.441 27.5796 315.746 28.2424 316.358 28.9051C316.969 29.5168 318.446 30.1286 320.789 30.7403C324.66 31.7089 327.614 32.856 329.652 34.1814C331.689 35.4559 333.09 36.9088 333.854 38.5401C334.618 40.1715 335 41.9812 335 43.9694C335 46.4164 334.312 48.6085 332.937 50.5457C331.613 52.4829 329.779 54.0123 327.436 55.1338C325.144 56.2553 322.521 56.8161 319.566 56.8161Z" fill="white"/>
<path d="M2.60033 127.511V99.7045H5.96469V124.524H18.8795V127.511H2.60033Z" fill="var(--fill-0, #D1D1D1)"/>
<path d="M30.42 127.511H26.8928L37.0944 99.7045H40.5673L50.7689 127.511H47.2418L38.9394 104.104H38.7223L30.42 127.511ZM31.7223 116.649H45.9394V119.636H31.7223V116.649Z" fill="var(--fill-0, #D1D1D1)"/>
<path d="M58.5346 127.511V99.7045H68.2479C70.1833 99.7045 71.7796 100.039 73.0367 100.709C74.2938 101.37 75.2298 102.262 75.8448 103.384C76.4598 104.497 76.7673 105.733 76.7673 107.091C76.7673 108.285 76.5548 109.272 76.1297 110.051C75.7137 110.829 75.162 111.444 74.4747 111.897C73.7964 112.35 73.0593 112.685 72.2634 112.902V113.173C73.1135 113.228 73.9682 113.526 74.8274 114.069C75.6866 114.613 76.4056 115.391 76.9844 116.405C77.5632 117.419 77.8526 118.659 77.8526 120.125C77.8526 121.519 77.5361 122.773 76.903 123.886C76.2699 124.999 75.2705 125.882 73.9049 126.534C72.5392 127.185 70.7621 127.511 68.5735 127.511H58.5346ZM61.899 124.524H68.5735C70.7712 124.524 72.3312 124.099 73.2537 123.248C74.1853 122.388 74.651 121.347 74.651 120.125C74.651 119.184 74.4114 118.315 73.932 117.518C73.4527 116.713 72.7699 116.07 71.8836 115.59C70.9972 115.101 69.9482 114.857 68.7363 114.857H61.899V124.524ZM61.899 111.924H68.1394C69.1523 111.924 70.0657 111.725 70.8797 111.327C71.7027 110.929 72.3539 110.367 72.8332 109.643C73.3216 108.919 73.5657 108.068 73.5657 107.091C73.5657 105.869 73.1407 104.832 72.2905 103.981C71.4404 103.121 70.0929 102.692 68.2479 102.692H61.899V111.924Z" fill="var(--fill-0, #D1D1D1)"/>
<path d="M102.013 106.656C101.85 105.28 101.19 104.212 100.032 103.452C98.8745 102.692 97.4546 102.311 95.7724 102.311C94.5425 102.311 93.4662 102.511 92.5437 102.909C91.6303 103.307 90.9158 103.855 90.4003 104.552C89.8939 105.249 89.6406 106.041 89.6406 106.928C89.6406 107.67 89.817 108.308 90.1697 108.842C90.5315 109.367 90.9927 109.806 91.5534 110.159C92.1141 110.503 92.702 110.788 93.317 111.015C93.932 111.232 94.4972 111.408 95.0127 111.544L97.8345 112.304C98.558 112.494 99.3629 112.757 100.249 113.092C101.145 113.427 101.999 113.884 102.813 114.463C103.636 115.033 104.314 115.767 104.848 116.663C105.382 117.559 105.648 118.659 105.648 119.962C105.648 121.465 105.255 122.822 104.468 124.035C103.69 125.248 102.551 126.212 101.05 126.927C99.5574 127.642 97.744 128 95.6096 128C93.62 128 91.8971 127.679 90.441 127.036C88.994 126.393 87.8544 125.497 87.0224 124.348C86.1994 123.198 85.7336 121.863 85.6251 120.342H89.098C89.1884 121.392 89.5411 122.261 90.1561 122.949C90.7802 123.628 91.567 124.135 92.5166 124.47C93.4753 124.796 94.5063 124.959 95.6096 124.959C96.8939 124.959 98.047 124.75 99.069 124.334C100.091 123.909 100.9 123.32 101.497 122.569C102.094 121.809 102.393 120.922 102.393 119.908C102.393 118.985 102.135 118.233 101.619 117.654C101.104 117.075 100.426 116.604 99.5845 116.242C98.7434 115.88 97.8345 115.563 96.8577 115.291L93.4391 114.314C91.2685 113.689 89.5502 112.798 88.284 111.639C87.0179 110.481 86.3848 108.964 86.3848 107.091C86.3848 105.534 86.8053 104.176 87.6464 103.017C88.4966 101.85 89.6361 100.945 91.065 100.302C92.503 99.6502 94.1083 99.3243 95.881 99.3243C97.6717 99.3243 99.2634 99.6457 100.656 100.288C102.049 100.922 103.152 101.791 103.966 102.895C104.789 104 105.223 105.253 105.269 106.656H102.013Z" fill="var(--fill-0, #D1D1D1)"/>
</g>
</svg>
